<svg width="151" height="150" viewBox="0 0 151 150" fill="none" xmlns="http://www.w3.org/2000/svg">
<path d="M77.0312 0.263972C71.1625 1.3807 66.8381 3.09144 62.8939 5.87138C60.3991 7.62963 56.1223 11.9777 54.5303 14.4013C50.9901 19.7711 49.4932 24.4756 49.2081 31.0334C48.9705 36.4032 49.7308 40.5375 51.8217 44.9569C53.081 47.5943 54.364 49.5189 56.3599 51.7523C58.2607 53.867 59.6388 54.8887 62.4425 56.338C63.678 56.9558 64.7235 57.5023 64.771 57.5498C64.8185 57.5973 64.5334 58.6903 64.1295 59.9496C61.896 66.9351 61.3495 70.1189 61.3733 76.1778C61.3733 81.4526 61.6109 82.8544 63.0127 86.2046C63.9869 88.5093 63.9869 88.4856 63.2266 88.6994C62.8464 88.7945 61.6346 88.8895 60.5179 88.8657C57.0489 88.8657 54.7204 87.5114 52.2969 84.1137C50.8713 82.1178 49.7783 81.809 48.8041 83.1158C48.3527 83.7098 48.3289 83.8999 48.5665 85.1354C49.2556 88.8182 51.5366 92.905 54.5779 95.8988C56.6925 97.9659 58.6884 99.2252 61.3495 100.104C63.0365 100.651 63.6305 100.746 66.5768 100.746C70.5447 100.77 71.9466 100.461 75.2492 98.8213C76.4848 98.2035 77.6015 97.6808 77.6965 97.6808C77.8153 97.6808 78.0529 98.0847 78.2193 98.5837C79.2172 101.482 82.8763 105.569 85.9413 107.161C88.1748 108.349 89.7667 108.729 91.3586 108.492C92.8555 108.254 93.7822 107.755 94.5663 106.852C96.3958 104.666 95.8968 101.839 93.1644 98.9876L91.8814 97.657L93.2595 96.2314C95.588 93.8554 96.5384 91.123 96.3483 87.4164C96.277 85.5868 96.1344 85.0404 95.3979 83.4959C93.8297 80.1933 91.4299 78.1737 88.0085 77.3183C83.2564 76.1065 78.0054 77.5559 74.4889 81.0486C73.2296 82.2842 70.9724 85.5156 70.9724 86.062C70.9724 86.2521 70.8774 86.3947 70.7348 86.3947C70.3784 86.3947 70.4497 84.779 70.8536 83.1871C71.305 81.4763 72.2079 79.7893 73.3959 78.435C74.2513 77.4608 76.4848 75.7976 77.5064 75.3937C77.9579 75.2036 77.9579 75.1799 77.3876 74.7284C73.6573 71.7822 72.2792 69.5962 71.5426 65.3669C71.3526 64.3215 71.21 62.6582 71.21 61.6603V59.8545L72.3505 60.0684C72.9683 60.1872 75.9858 60.306 79.0509 60.3297L84.6345 60.3535L86.8917 59.4506C89.8617 58.2626 91.8814 58.0725 93.8772 58.8329C95.588 59.4744 97.1561 60.8762 98.0115 62.5157C98.5817 63.5611 98.653 63.9651 98.6293 65.8421C98.6293 67.5528 98.5342 68.1944 98.0828 69.0973C97.2512 70.808 95.8256 72.0435 93.2357 73.3266L90.8834 74.4433L92.5229 75.3462C97.5838 78.1737 100.388 83.8523 99.6985 89.9587C99.4371 92.1922 98.7956 94.0455 97.5363 96.0888C97.0373 96.8967 96.6334 97.657 96.6334 97.7521C96.6334 97.8471 97.1086 98.75 97.6789 99.7242C100.102 103.858 103.405 106.377 107.943 107.517C114.549 109.181 120.916 107.636 127.712 102.742C130.563 100.675 131.133 100.199 133.913 97.4669C141.469 90.1013 146.506 80.8823 149.476 68.9309C150.379 65.2956 150.617 63.181 150.213 62.3969C149.452 60.9 145.817 58.3577 141.089 56.0054C135.458 53.1779 129.399 51.3246 123.958 50.8019L122.176 50.6356L122.247 49.4476C122.294 48.7823 122.199 47.9269 122.057 47.5468C121.415 45.8598 119.372 44.5055 117.424 44.5055C114.168 44.5055 111.769 46.43 110.486 50.0416C110.248 50.7306 109.892 51.3484 109.702 51.3959C108.323 51.8711 105.021 53.3918 103.263 54.3659C102.122 54.9837 101.077 55.5064 100.958 55.5064C100.744 55.5064 99.5797 53.1779 99.746 53.0591C99.7935 53.0116 100.269 52.6552 100.791 52.2513C102.645 50.8257 106.399 48.4021 107.159 48.117C107.801 47.9032 108.038 47.618 108.347 46.7152C109.06 44.7193 110.557 43.1986 112.672 42.3908L113.622 42.0106L114.43 38.9693C115.238 35.9755 115.261 35.7855 115.261 31.1522C115.285 26.519 115.261 26.3289 114.525 23.5727C113.099 18.4405 110.581 13.9736 106.898 10.1007C104.189 7.22571 101.385 5.18233 97.9402 3.4716C92.5704 0.834217 89.5766 0.121411 83.2089 0.0263701C80.0726 -0.0449105 78.1717 0.0263701 77.0312 0.263972ZM85.5849 4.42201C96.8472 5.70506 106.375 13.1182 109.868 23.3114C111.531 28.206 111.555 34.146 109.892 39.1119C109.345 40.8226 107.848 43.4125 106.114 45.6935L104.997 47.1904L104.831 45.4321C104.759 44.4579 104.759 43.1749 104.831 42.5809C104.997 41.5117 104.997 41.5117 106.114 41.3454C108.11 41.084 108.751 40.2999 107.801 39.3495C107.444 38.9931 107.017 38.8743 106.137 38.8743H104.949V37.8288C104.949 37.2586 104.878 36.6171 104.807 36.4032C104.712 36.1894 104.902 35.928 105.353 35.6904C106.518 35.0964 107.967 33.457 108.371 32.2927C109.82 28.0396 107.112 23.739 102.882 23.5965L101.48 23.5252L99.0094 21.0304C95.8968 17.9416 93.307 16.4922 89.743 15.8744L88.6975 15.7081L90.1469 14.2112C90.9547 13.4034 91.525 12.6906 91.4299 12.6193C91.3349 12.5718 90.2657 12.5718 89.0539 12.643C86.8204 12.7618 83.6841 13.4746 81.4744 14.3775C80.619 14.7102 80.2389 14.7815 80.3339 14.5914C80.6903 13.6885 81.4744 11.0273 81.3794 10.9561C81.3318 10.8848 79.6686 11.8827 77.7203 13.1658C69.6418 18.488 64.4859 23.9529 62.8464 29.0376L62.2999 30.7483L61.2782 30.8909C58.3082 31.2948 56.4549 33.5995 56.4549 36.8547C56.4549 40.1336 58.8072 42.9848 61.4921 42.961L62.3474 42.9373L62.8702 44.6243C63.1315 45.5509 63.3454 46.335 63.2979 46.335C63.2741 46.3588 62.7751 46.5251 62.1811 46.7152C61.1832 47.0478 61.1119 47.1191 61.1119 47.9032C61.1119 48.7348 61.1119 48.7348 62.1811 48.7348C62.7751 48.711 63.4642 48.6635 63.7018 48.616C64.1057 48.5209 64.2245 48.7348 64.5571 50.4455C64.7947 51.5385 64.866 52.4176 64.7472 52.4176C64.2245 52.4176 60.708 49.9228 59.615 48.7585C57.2152 46.2162 55.0768 42.3195 54.0551 38.6367C53.5799 36.8547 53.5087 36.1181 53.5324 32.3402C53.5562 28.5386 53.6275 27.802 54.1739 25.7349C55.7896 19.6523 58.8785 14.8052 63.7018 10.7897C67.0044 8.03356 70.521 6.29906 74.8928 5.22985C79.0984 4.23193 81.9258 4.01808 85.5849 4.42201ZM95.4929 23.6202C97.6551 24.6895 99.4846 26.4002 100.506 28.3485C101.576 30.4157 102.502 33.6233 102.098 33.8846C101.932 33.9797 100.934 34.2411 99.8648 34.4787C97.5601 34.9539 96.871 35.3578 96.871 36.1419C96.871 37.0923 97.6789 37.3299 99.8648 36.9972C100.863 36.8547 101.932 36.6646 102.241 36.5933C102.787 36.4507 102.811 36.4983 102.811 37.8051V39.1832L97.6789 38.8505L97.3937 39.4683C97.1799 39.896 97.1799 40.2286 97.3462 40.5375C97.6313 41.0602 97.9165 41.1553 100.364 41.5592L102.051 41.8443L101.362 43.2462C100.982 44.0065 100.245 45.147 99.746 45.7885L98.8431 46.929L99.2708 48.7823C99.5084 49.804 99.7222 50.8019 99.7222 50.992C99.7222 51.7048 93.7822 53.8432 88.9351 54.8411C85.4661 55.5777 85.1572 55.6015 79.5261 55.6252C76.3184 55.6252 73.1821 55.5302 72.5406 55.4351L71.3763 55.2213L71.5189 52.869C71.5902 51.586 71.5664 50.5168 71.4476 50.5168C71.1387 50.5168 68.6201 48.4021 68.3588 47.9032C68.1449 47.4992 68.2875 47.3329 69.7131 46.5964C73.9424 44.3629 74.5364 43.6501 72.8732 42.7947C72.2792 42.4858 72.1604 42.5096 70.9962 43.2937C69.5943 44.2441 67.9548 45.0282 67.3846 45.0519C67.1708 45.0519 66.8619 44.6243 66.6243 43.9115C66.1016 42.4621 66.1016 42.4383 66.8381 42.4383C67.1945 42.4383 68.4301 42.2007 69.6181 41.9394C72.1129 41.3453 73.0871 40.6563 72.6118 39.8009C72.3267 39.2545 72.398 39.2545 67.8836 39.8009C66.9094 39.9197 66.0065 39.9673 65.8877 39.896C65.4838 39.6346 65.9115 34.0985 66.458 32.5303C67.7885 28.6812 70.3546 26.3051 73.9187 25.5686C76.8174 24.9746 79.5023 25.8299 81.9258 28.1347C82.8287 28.9663 83.6128 29.6316 83.6603 29.5841C83.6841 29.5365 84.0643 28.7762 84.4682 27.8971C85.4186 25.8299 86.8917 24.238 88.6737 23.3826C89.9568 22.7649 90.2894 22.6936 92.0477 22.7886C93.6159 22.8599 94.2574 23.0025 95.4929 23.6202ZM103.975 28.0396C104.926 28.5386 105.235 29.0138 105.235 29.9167C105.235 30.7245 104.617 32.2214 104.284 32.2214C104.189 32.2214 103.928 31.3423 103.666 30.2731C103.429 29.2039 103.191 28.206 103.12 28.0159C102.954 27.612 103.144 27.6357 103.975 28.0396ZM61.7059 39.4208C61.6346 39.5158 61.207 39.2307 60.7793 38.7793C59.6863 37.6388 59.6863 36.4508 60.803 35.4528L61.5871 34.74L61.7059 36.9735C61.7772 38.209 61.7772 39.302 61.7059 39.4208ZM116.782 60.5673C116.948 60.7099 118.231 62.3969 119.61 64.3215C120.988 66.2698 122.247 67.9568 122.437 68.0993C122.651 68.3132 124.1 68.2894 127.831 68.0756C133.295 67.7667 133.581 67.8142 134.317 68.9309C134.935 69.8813 134.626 70.4041 131.133 74.2057C130.04 75.3937 128.876 76.748 128.543 77.1995L127.949 78.0311L129.09 80.1458C132.369 86.2046 132.749 87.3213 131.798 88.1767C131.157 88.7469 130.016 88.5806 125.288 87.2263C123.221 86.6323 121.392 86.1571 121.225 86.1571C121.083 86.1571 119.348 87.6065 117.424 89.3647C114.382 92.1447 113.788 92.5723 113.099 92.5723C112.624 92.5723 112.125 92.3823 111.84 92.0971C111.27 91.5269 111.222 90.1963 111.626 85.1116C111.816 82.4505 111.816 81.7377 111.555 81.5001C111.388 81.3338 109.393 80.4546 107.135 79.528C104.854 78.6251 102.74 77.6985 102.431 77.4846C101.694 77.0094 101.647 75.6788 102.36 75.0135C102.835 74.5859 108.157 72.3049 110.581 71.497C111.222 71.2832 111.816 71.0456 111.911 70.9506C112.03 70.8555 112.529 68.7409 113.052 66.2936C113.551 63.8225 114.097 61.5178 114.24 61.1614C114.644 60.1634 115.903 59.8783 116.782 60.5673Z" fill="url(#paint0_linear_107_23)"/>
<path d="M66.9332 10.2908C66.1015 10.9323 65.2462 11.5738 64.9848 11.7639C64.7472 11.9302 64.5571 12.2391 64.5571 12.4292C64.5571 13.142 65.3175 12.9994 66.5292 12.0966C67.1945 11.5738 68.2162 10.861 68.7864 10.5046C69.6418 9.9819 69.7606 9.79182 69.5468 9.5067C69.0716 8.93645 68.4776 9.12654 66.9332 10.2908Z" fill="url(#paint1_linear_107_23)"/>
<path d="M61.4445 15.1616C60.209 16.6823 59.3536 18.0366 59.4724 18.2505C59.7813 18.7494 60.4704 18.3217 61.3495 17.11C61.8722 16.3734 62.49 15.6368 62.7276 15.4705C63.2503 15.1141 63.179 14.33 62.6326 14.2112C62.4425 14.1875 61.896 14.5914 61.4445 15.1616Z" fill="url(#paint2_linear_107_23)"/>
<path d="M92.1902 28.0872C91.1448 28.6099 90.4557 29.7742 90.4557 31.0097C90.4557 31.8175 90.5508 32.0314 91.0022 32.1977C91.7626 32.4828 92.0239 32.3165 92.4516 31.2948C92.7605 30.5107 93.2119 30.083 93.7109 30.083C93.7584 30.083 94.2336 30.5107 94.7563 31.0334C95.778 32.0789 96.1582 32.1739 96.7284 31.6037C97.2274 31.1285 97.2036 30.8671 96.5621 29.7504C95.5642 27.9684 93.7347 27.2793 92.1902 28.0872Z" fill="url(#paint3_linear_107_23)"/>
<path d="M72.7544 31.4136C71.709 31.9363 71.1387 32.863 71.0199 34.2411C70.9249 35.5241 71.2813 36.1419 72.0654 35.9756C72.493 35.9043 72.6119 35.7142 73.2534 34.2886C73.7286 33.1956 74.2275 33.1719 75.3918 34.1698C76.0333 34.74 76.3422 34.8588 76.6273 34.6925C77.3639 34.2173 77.4589 33.7659 77.0312 32.8392C76.2472 31.1998 74.3701 30.582 72.7544 31.4136Z" fill="url(#paint4_linear_107_23)"/>
<path d="M82.2585 31.7462C80.0013 32.6254 79.336 34.3836 80.7378 35.7855C81.5457 36.5696 83.0663 37.4487 83.6841 37.4487C84.1831 37.4487 84.1593 39.302 83.6603 40.0386C82.8525 41.179 80.4289 41.6305 79.2885 40.8464C78.9558 40.6326 78.4093 40.2049 78.0529 39.8722C77.2213 39.1119 76.6748 39.302 76.6748 40.395C76.6748 41.8206 78.4093 43.3887 79.9775 43.3887C80.524 43.3887 80.9992 43.6976 81.9734 44.6718C83.8742 46.5726 85.4186 46.8577 87.652 45.741C88.65 45.242 89.5529 44.1491 89.9805 42.8898C90.2181 42.2245 90.5745 41.8918 91.5962 41.3691C93.7109 40.2524 94.8989 37.8764 93.8297 36.9022C93.1406 36.2844 92.8793 36.4032 92.2853 37.615C91.5725 39.1357 90.5033 39.8247 88.8876 39.8247C87.4144 39.8247 86.5353 39.2307 86.2027 37.9952C86.0126 37.3061 86.0601 37.1873 86.8917 36.522C87.3907 36.1419 88.0322 35.3103 88.3173 34.7163C88.7688 33.7659 88.7925 33.5283 88.5549 32.9343C88.3886 32.5303 87.9134 32.0076 87.4857 31.7462C86.464 31.1047 83.9217 31.1047 82.2585 31.7462ZM87.5808 41.9631C88.246 41.9631 88.2223 42.272 87.4144 43.1749C86.4878 44.2203 84.8959 44.4104 83.9454 43.5788L83.2802 43.0086L83.9454 42.5571C84.3256 42.3195 84.8246 41.8681 85.0622 41.5592L85.5136 41.0127L86.2977 41.4879C86.7254 41.7493 87.2956 41.9631 87.5808 41.9631Z" fill="url(#paint5_linear_107_23)"/>
<path d="M90.0993 61.8504C89.7192 61.9217 87.9134 62.5395 86.1076 63.276C84.3018 63.9888 82.401 64.5828 81.8546 64.6066C80.9041 64.6541 80.8091 64.6066 80.025 63.4186L79.1696 62.183L76.6273 62.1593C73.681 62.1593 73.7761 62.0405 74.4414 64.6303C75.962 70.4991 80.9279 74.0394 85.9413 72.7563C88.1985 72.1623 93.5446 69.5249 94.3049 68.5983C96.966 65.4382 94.3524 61.2326 90.0993 61.8504Z" fill="url(#paint6_linear_107_23)"/>
<path d="M56.2411 74.5621C55.5283 74.966 54.4828 75.5838 53.9363 75.9402C53.0097 76.5817 52.9146 76.6055 52.0355 76.2966C49.9684 75.5363 48.2576 76.0352 44.361 78.435C40.8682 80.5734 34.548 84.3513 28.5604 87.8678C25.5667 89.6261 20.6958 92.501 17.7496 94.2355C14.8033 95.97 10.2176 98.6787 7.53267 100.247C1.92526 103.502 0.784775 104.452 0.23829 106.329C-0.545796 109.038 0.642214 111.557 3.25584 112.745C5.46553 113.743 6.22586 113.505 12.5223 109.87C14.6845 108.61 21.1948 104.833 27.016 101.459C39.1813 94.4019 46.0242 90.4814 46.2855 90.3864C46.4044 90.3389 46.1667 89.3647 45.7628 88.2005C44.8362 85.5393 44.7649 83.4722 45.5252 81.7614C46.1667 80.3121 46.5944 79.8131 47.8062 79.2191C50.0397 78.0786 52.677 78.8389 54.5303 81.1674C56.74 83.9949 57.0014 84.28 57.7142 84.6364C58.0944 84.8265 58.4745 84.9453 58.5458 84.8978C58.5933 84.8265 58.427 83.7335 58.1419 82.4267C57.6192 80.0507 57.4053 75.3937 57.7617 74.3245C57.9756 73.6592 57.8568 73.683 56.2411 74.5621Z" fill="url(#paint7_linear_107_23)"/>
<path d="M46.7132 99.4866C44.6936 100.698 41.3909 102.647 39.3713 103.858C37.3517 105.046 33.0274 107.589 29.7485 109.49C19.6741 115.335 15.9913 117.544 15.1597 118.162C14.138 118.946 13.2351 120.871 13.2351 122.273C13.2351 123.651 14.0192 125.243 15.2072 126.169C15.9438 126.74 16.3239 126.882 17.3456 126.882C18.7712 126.906 19.7454 126.478 23.7846 124.055C25.234 123.199 26.6834 122.51 27.016 122.51C28.608 122.51 29.2732 124.601 28.0377 125.765C27.6576 126.098 25.4479 127.452 23.0956 128.783C15.92 132.846 7.48515 137.74 5.9645 138.738C3.58848 140.283 2.70935 142.635 3.61224 144.987C4.51513 147.387 6.46346 148.765 8.69692 148.599C10.075 148.504 11.6194 147.672 21.7888 141.637C23.1669 140.806 25.4003 139.522 26.7784 138.738C28.1565 137.954 31.9582 135.768 35.2133 133.868C38.4922 131.99 44.0996 128.735 47.6874 126.668C51.2752 124.601 56.6212 121.536 59.5675 119.825C62.5138 118.138 65.3887 116.475 65.9352 116.166L66.9807 115.572L68.3113 116.166C70.3784 117.093 72.493 117.734 75.2968 118.281C77.4114 118.709 77.7916 118.827 77.4352 119.065C77.2213 119.231 74.7978 120.657 72.0416 122.273C69.3092 123.888 65.6026 126.05 63.8443 127.096C58.2369 130.422 54.5303 132.608 52.2018 133.963C40.8445 140.592 40.7019 140.663 39.9416 142.326C38.4922 145.415 40.1792 149.003 43.4581 149.858C45.1451 150.31 46.3093 149.834 52.4394 146.199C60.6367 141.328 71.3763 135.056 82.4961 128.617C94.1148 121.916 99.0807 119.16 104.165 116.689C106.684 115.453 109.892 113.79 111.293 112.982C114.026 111.414 118.707 108.563 119.063 108.23C119.372 107.945 117.186 108.61 110.296 110.82C100.102 114.123 96.3008 114.907 89.2202 115.073C82.3298 115.263 77.8391 114.646 71.8278 112.745C68.4301 111.652 62.989 108.872 60.0427 106.71C57.3103 104.69 53.0334 100.508 51.7266 98.5599C51.2752 97.8946 50.7762 97.3244 50.6337 97.3244C50.4911 97.3244 48.7328 98.2985 46.7132 99.4866ZM53.7938 107.019C54.958 108.183 56.2411 109.371 56.6688 109.703L57.4528 110.274L52.4157 113.339C49.6595 115.026 46.9746 116.594 46.4756 116.855C43.9095 118.091 41.2009 116.309 41.2009 113.363C41.2009 111.2 41.5335 110.844 46.8558 107.731C49.4694 106.211 51.6316 104.951 51.6554 104.951C51.7029 104.928 52.6533 105.878 53.7938 107.019Z" fill="url(#paint8_linear_107_23)"/>
<defs>
<linearGradient id="paint0_linear_107_23" x1="75.2013" y1="0" x2="75.2013" y2="150" gradientUnits="userSpaceOnUse">
<stop stop-color="#27509B"/>
<stop offset="1" stop-color="#AEC5E5"/>
</linearGradient>
<linearGradient id="paint1_linear_107_23" x1="75.2013" y1="0" x2="75.2013" y2="150" gradientUnits="userSpaceOnUse">
<stop stop-color="#27509B"/>
<stop offset="1" stop-color="#AEC5E5"/>
</linearGradient>
<linearGradient id="paint2_linear_107_23" x1="75.2013" y1="0" x2="75.2013" y2="150" gradientUnits="userSpaceOnUse">
<stop stop-color="#27509B"/>
<stop offset="1" stop-color="#AEC5E5"/>
</linearGradient>
<linearGradient id="paint3_linear_107_23" x1="75.2013" y1="0" x2="75.2013" y2="150" gradientUnits="userSpaceOnUse">
<stop stop-color="#27509B"/>
<stop offset="1" stop-color="#AEC5E5"/>
</linearGradient>
<linearGradient id="paint4_linear_107_23" x1="75.2013" y1="0" x2="75.2013" y2="150" gradientUnits="userSpaceOnUse">
<stop stop-color="#27509B"/>
<stop offset="1" stop-color="#AEC5E5"/>
</linearGradient>
<linearGradient id="paint5_linear_107_23" x1="75.2013" y1="0" x2="75.2013" y2="150" gradientUnits="userSpaceOnUse">
<stop stop-color="#27509B"/>
<stop offset="1" stop-color="#AEC5E5"/>
</linearGradient>
<linearGradient id="paint6_linear_107_23" x1="75.2013" y1="0" x2="75.2013" y2="150" gradientUnits="userSpaceOnUse">
<stop stop-color="#27509B"/>
<stop offset="1" stop-color="#AEC5E5"/>
</linearGradient>
<linearGradient id="paint7_linear_107_23" x1="75.2013" y1="0" x2="75.2013" y2="150" gradientUnits="userSpaceOnUse">
<stop stop-color="#27509B"/>
<stop offset="1" stop-color="#AEC5E5"/>
</linearGradient>
<linearGradient id="paint8_linear_107_23" x1="75.2013" y1="0" x2="75.2013" y2="150" gradientUnits="userSpaceOnUse">
<stop stop-color="#27509B"/>
<stop offset="1" stop-color="#AEC5E5"/>
</linearGradient>
</defs>
</svg>
